<svg width="155" height="57" viewBox="0 0 155 57" fill="none" xmlns="http://www.w3.org/2000/svg">
<path d="M16.976 3.168V4.368L14.936 4.68V19.56L17.168 19.824V21H10.4V19.824L12.392 19.56V4.584H4.712V19.584L6.944 19.824V21H0.224V19.824L2.168 19.584V4.656L0.128 4.368V3.168H16.976ZM23.5256 10.368C23.5256 12.576 23.3976 14.472 23.1416 16.056C22.8856 17.624 22.5736 18.776 22.2056 19.512C21.9656 20.056 21.6536 20.464 21.2696 20.736C20.8856 21.008 20.3256 21.144 19.5896 21.144C19.3016 21.144 18.9176 21.096 18.4376 21L18.2936 18.984C18.6616 19.064 19.2056 19.104 19.9256 19.104C20.5976 19.104 21.1336 18.216 21.5336 16.44C21.9336 14.664 22.1416 12.248 22.1576 9.192L19.9736 8.856V7.68H32.2136V8.88L30.1256 9.24V19.608L32.1416 19.824V21H25.7816V19.824L27.6536 19.608V9.12H23.5256V10.368ZM34.1347 17.4C34.1347 15.896 34.8867 14.792 36.3907 14.088C37.8947 13.368 39.7987 12.984 42.1027 12.936V12.264C42.1027 11.512 42.0227 10.92 41.8627 10.488C41.7027 10.056 41.4227 9.744 41.0227 9.552C40.6387 9.344 40.0867 9.24 39.3667 9.24C38.5507 9.24 37.8147 9.36 37.1587 9.6C36.5187 9.824 35.8787 10.104 35.2387 10.44L34.6387 9.192C34.8467 9.016 35.2307 8.784 35.7907 8.496C36.3507 8.208 36.9987 7.952 37.7347 7.728C38.4707 7.504 39.2067 7.392 39.9427 7.392C41.0787 7.392 41.9747 7.552 42.6307 7.872C43.3027 8.176 43.7827 8.672 44.0707 9.36C44.3587 10.048 44.5027 10.968 44.5027 12.12V19.824H45.9187V20.88C45.5987 20.96 45.1907 21.04 44.6947 21.12C44.2147 21.2 43.7907 21.24 43.4227 21.24C42.9747 21.24 42.6707 21.168 42.5107 21.024C42.3507 20.896 42.2707 20.6 42.2707 20.136V19.344C41.7907 19.824 41.1987 20.264 40.4947 20.664C39.8067 21.064 39.0227 21.264 38.1427 21.264C36.9907 21.264 36.0307 20.936 35.2627 20.28C34.5107 19.608 34.1347 18.648 34.1347 17.4ZM39.1747 19.632C39.5907 19.632 40.0707 19.504 40.6147 19.248C41.1587 18.992 41.6547 18.688 42.1027 18.336V14.208C40.3587 14.208 39.0387 14.48 38.1427 15.024C37.2627 15.552 36.8227 16.248 36.8227 17.112C36.8227 17.976 37.0307 18.616 37.4467 19.032C37.8787 19.432 38.4547 19.632 39.1747 19.632ZM53.8998 7.68V8.856L51.9078 9.192V13.392H58.5318V9.192L56.5158 8.856V7.68H62.7558V8.856L61.0038 9.192V19.608L62.8518 19.824V21H56.4678V19.824L58.5318 19.608V14.784H51.9078V19.608L53.9718 19.824V21H47.6118V19.824L49.4358 19.608V9.192L47.6358 8.856V7.68H53.8998ZM70.9059 21.264C68.9699 21.264 67.4899 20.632 66.4659 19.368C65.4579 18.104 64.9539 16.416 64.9539 14.304C64.9539 12.912 65.2179 11.688 65.7459 10.632C66.2739 9.576 67.0099 8.76 67.9539 8.184C68.9139 7.608 70.0019 7.32 71.2179 7.32C72.7059 7.32 73.8579 7.736 74.6739 8.568C75.5059 9.384 75.9459 10.56 75.9939 12.096C75.9939 13.072 75.9379 13.816 75.8259 14.328H67.5699C67.6019 15.912 67.9699 17.192 68.6739 18.168C69.3779 19.128 70.3779 19.608 71.6739 19.608C72.3139 19.608 72.9779 19.496 73.6659 19.272C74.3699 19.032 74.9139 18.752 75.2979 18.432L75.7539 19.488C75.2899 19.968 74.6019 20.384 73.6899 20.736C72.7779 21.088 71.8499 21.264 70.9059 21.264ZM73.3539 13.056C73.4019 12.72 73.4259 12.376 73.4259 12.024C73.4099 10.984 73.1859 10.168 72.7539 9.576C72.3379 8.968 71.6739 8.664 70.7619 8.664C69.8339 8.664 69.0899 9 68.5299 9.672C67.9859 10.344 67.6739 11.472 67.5939 13.056H73.3539ZM91.0406 7.68L91.1846 12.744H89.6006L88.9526 9.12L85.7606 9V19.584L89.0246 19.824V21H80.0246V19.824L83.2646 19.584V9L80.0246 9.12L79.3766 12.744H77.7926L77.9366 7.68H91.0406ZM93.1034 17.4C93.1034 15.896 93.8554 14.792 95.3594 14.088C96.8634 13.368 98.7674 12.984 101.071 12.936V12.264C101.071 11.512 100.991 10.92 100.831 10.488C100.671 10.056 100.391 9.744 99.9914 9.552C99.6074 9.344 99.0554 9.24 98.3354 9.24C97.5194 9.24 96.7834 9.36 96.1274 9.6C95.4874 9.824 94.8474 10.104 94.2074 10.44L93.6074 9.192C93.8154 9.016 94.1994 8.784 94.7594 8.496C95.3194 8.208 95.9674 7.952 96.7034 7.728C97.4394 7.504 98.1754 7.392 98.9114 7.392C100.047 7.392 100.943 7.552 101.599 7.872C102.271 8.176 102.751 8.672 103.039 9.36C103.327 10.048 103.471 10.968 103.471 12.12V19.824H104.887V20.88C104.567 20.96 104.159 21.04 103.663 21.12C103.183 21.2 102.759 21.24 102.391 21.24C101.943 21.24 101.639 21.168 101.479 21.024C101.319 20.896 101.239 20.6 101.239 20.136V19.344C100.759 19.824 100.167 20.264 99.4634 20.664C98.7754 21.064 97.9914 21.264 97.1114 21.264C95.9594 21.264 94.9994 20.936 94.2314 20.28C93.4794 19.608 93.1034 18.648 93.1034 17.4ZM98.1434 19.632C98.5594 19.632 99.0394 19.504 99.5834 19.248C100.127 18.992 100.623 18.688 101.071 18.336V14.208C99.3274 14.208 98.0074 14.48 97.1114 15.024C96.2314 15.552 95.7914 16.248 95.7914 17.112C95.7914 17.976 95.9994 18.616 96.4154 19.032C96.8474 19.432 97.4234 19.632 98.1434 19.632ZM119.541 13.872C119.541 15.232 119.261 16.48 118.701 17.616C118.141 18.736 117.341 19.624 116.301 20.28C115.261 20.936 114.045 21.264 112.653 21.264C112.269 21.264 111.853 21.232 111.405 21.168C110.957 21.104 110.597 21.024 110.325 20.928L110.397 22.944V25.368L112.893 25.632V26.808H106.197V25.632L107.925 25.368V9.528L106.173 9.096V7.8L109.581 7.368H109.629L110.133 7.8V9.216C110.613 8.688 111.205 8.24 111.909 7.872C112.629 7.504 113.429 7.32 114.309 7.32C115.253 7.32 116.117 7.552 116.901 8.016C117.701 8.48 118.341 9.2 118.821 10.176C119.301 11.152 119.541 12.384 119.541 13.872ZM113.325 9C112.717 9 112.149 9.128 111.621 9.384C111.093 9.64 110.685 9.92 110.397 10.224V19.272C110.509 19.464 110.789 19.64 111.237 19.8C111.701 19.944 112.205 20.016 112.749 20.016C113.981 20.016 114.973 19.528 115.725 18.552C116.493 17.576 116.877 16.104 116.877 14.136C116.877 12.408 116.541 11.12 115.869 10.272C115.213 9.424 114.365 9 113.325 9ZM127.891 7.68V8.856L125.923 9.192V17.232L127.363 15.336L132.787 9.6V9.192L131.011 8.856V7.68H137.011V8.856L135.283 9.192V19.608L137.083 19.824V21H130.867V19.824L132.787 19.608V11.448L131.203 13.656L125.923 19.152V19.632L127.507 19.824V21H121.651V19.824L123.451 19.608V9.192L121.675 8.856V7.68H127.891ZM145.516 7.68V8.856L143.548 9.192V17.232L144.988 15.336L150.412 9.6V9.192L148.636 8.856V7.68H154.636V8.856L152.908 9.192V19.608L154.708 19.824V21H148.492V19.824L150.412 19.608V11.448L148.828 13.656L143.548 19.152V19.632L145.132 19.824V21H139.276V19.824L141.076 19.608V9.192L139.3 8.856V7.68H145.516ZM144.172 0.696C144.428 0.696 144.556 0.992 144.556 1.584C144.556 2.304 144.748 2.92 145.132 3.432C145.532 3.944 146.156 4.2 147.004 4.2C147.836 4.2 148.436 3.944 148.804 3.432C149.188 2.92 149.38 2.304 149.38 1.584C149.38 0.992 149.508 0.696 149.764 0.696H151.516C151.532 0.791999 151.54 0.943999 151.54 1.152C151.54 2.448 151.14 3.488 150.34 4.272C149.556 5.056 148.436 5.448 146.98 5.448C145.556 5.448 144.436 5.056 143.62 4.272C142.804 3.472 142.396 2.432 142.396 1.152L142.42 0.696H144.172ZM10.448 37.68L10.568 42.672H9.056L8.456 39.12L4.4 39V49.608L7.664 49.824V51H0.00800008V49.824L1.904 49.608V39.192L0.0560001 38.856V37.68H10.448ZM14.1652 51.24C13.7492 51.24 13.3892 51.096 13.0852 50.808C12.7812 50.52 12.6292 50.152 12.6292 49.704C12.6292 49.208 12.8052 48.792 13.1572 48.456C13.5252 48.12 13.9492 47.952 14.4292 47.952C14.9252 47.952 15.3012 48.104 15.5572 48.408C15.8292 48.696 15.9652 49.056 15.9652 49.488C15.9652 50.016 15.7892 50.44 15.4372 50.76C15.0852 51.08 14.6612 51.24 14.1652 51.24ZM23.1568 40.488C23.4128 40.44 23.8768 40.392 24.5488 40.344C25.2368 40.28 25.8208 40.248 26.3008 40.248C28.3168 40.248 29.8368 40.696 30.8608 41.592C31.9008 42.488 32.4208 43.768 32.4208 45.432C32.4208 47.288 31.8368 48.712 30.6688 49.704C29.5168 50.696 27.9808 51.192 26.0608 51.192L24.5008 51.12C23.0288 51.04 22.1968 51 22.0048 51H18.2128V49.824L20.6128 49.584V34.656L18.2368 34.368V33.168H31.1728L31.4128 37.68H29.7808L29.0368 34.608L23.1568 34.416V40.488ZM23.1568 49.656C23.2368 49.672 23.4688 49.712 23.8528 49.776C24.2528 49.84 24.8128 49.872 25.5328 49.872C26.9088 49.872 27.9488 49.504 28.6528 48.768C29.3728 48.032 29.7328 46.976 29.7328 45.6C29.7328 42.976 28.3488 41.664 25.5808 41.664C25.1168 41.664 24.6448 41.68 24.1648 41.712C23.7008 41.744 23.3648 41.776 23.1568 41.808V49.656ZM34.2988 47.4C34.2988 45.896 35.0508 44.792 36.5548 44.088C38.0588 43.368 39.9628 42.984 42.2668 42.936V42.264C42.2668 41.512 42.1868 40.92 42.0268 40.488C41.8668 40.056 41.5868 39.744 41.1868 39.552C40.8028 39.344 40.2508 39.24 39.5308 39.24C38.7148 39.24 37.9788 39.36 37.3228 39.6C36.6828 39.824 36.0428 40.104 35.4028 40.44L34.8027 39.192C35.0108 39.016 35.3948 38.784 35.9548 38.496C36.5148 38.208 37.1628 37.952 37.8988 37.728C38.6348 37.504 39.3708 37.392 40.1068 37.392C41.2428 37.392 42.1388 37.552 42.7948 37.872C43.4668 38.176 43.9468 38.672 44.2348 39.36C44.5228 40.048 44.6668 40.968 44.6668 42.12V49.824H46.0828V50.88C45.7628 50.96 45.3548 51.04 44.8588 51.12C44.3788 51.2 43.9548 51.24 43.5868 51.24C43.1388 51.24 42.8348 51.168 42.6748 51.024C42.5148 50.896 42.4348 50.6 42.4348 50.136V49.344C41.9548 49.824 41.3628 50.264 40.6588 50.664C39.9708 51.064 39.1868 51.264 38.3068 51.264C37.1548 51.264 36.1948 50.936 35.4268 50.28C34.6748 49.608 34.2988 48.648 34.2988 47.4ZM39.3388 49.632C39.7548 49.632 40.2348 49.504 40.7788 49.248C41.3228 48.992 41.8188 48.688 42.2668 48.336V44.208C40.5228 44.208 39.2028 44.48 38.3068 45.024C37.4268 45.552 36.9868 46.248 36.9868 47.112C36.9868 47.976 37.1948 48.616 37.6108 49.032C38.0428 49.432 38.6188 49.632 39.3388 49.632ZM60.7359 43.872C60.7359 45.232 60.4559 46.48 59.8959 47.616C59.3359 48.736 58.5359 49.624 57.4959 50.28C56.4559 50.936 55.2399 51.264 53.8479 51.264C53.4639 51.264 53.0479 51.232 52.5999 51.168C52.1519 51.104 51.7919 51.024 51.5199 50.928L51.5919 52.944V55.368L54.0879 55.632V56.808H47.3919V55.632L49.1199 55.368V39.528L47.3679 39.096V37.8L50.7759 37.368H50.8239L51.3279 37.8V39.216C51.8079 38.688 52.3999 38.24 53.1039 37.872C53.8239 37.504 54.6239 37.32 55.5039 37.32C56.4479 37.32 57.3119 37.552 58.0959 38.016C58.8959 38.48 59.5359 39.2 60.0159 40.176C60.4959 41.152 60.7359 42.384 60.7359 43.872ZM54.5199 39C53.9119 39 53.3439 39.128 52.8159 39.384C52.2879 39.64 51.8799 39.92 51.5919 40.224V49.272C51.7039 49.464 51.9839 49.64 52.4319 49.8C52.8959 49.944 53.3999 50.016 53.9439 50.016C55.1759 50.016 56.1679 49.528 56.9199 48.552C57.6879 47.576 58.0719 46.104 58.0719 44.136C58.0719 42.408 57.7359 41.12 57.0639 40.272C56.4079 39.424 55.5599 39 54.5199 39ZM69.1342 37.68V38.856L67.1422 39.192V43.392H73.7662V39.192L71.7502 38.856V37.68H77.9902V38.856L76.2382 39.192V49.608L78.0862 49.824V51H71.7022V49.824L73.7662 49.608V44.784H67.1422V49.608L69.2062 49.824V51H62.8462V49.824L64.6702 49.608V39.192L62.8702 38.856V37.68H69.1342ZM80.2363 47.4C80.2363 45.896 80.9883 44.792 82.4923 44.088C83.9963 43.368 85.9003 42.984 88.2043 42.936V42.264C88.2043 41.512 88.1243 40.92 87.9643 40.488C87.8043 40.056 87.5243 39.744 87.1243 39.552C86.7403 39.344 86.1883 39.24 85.4683 39.24C84.6523 39.24 83.9163 39.36 83.2603 39.6C82.6203 39.824 81.9803 40.104 81.3403 40.44L80.7402 39.192C80.9483 39.016 81.3323 38.784 81.8923 38.496C82.4523 38.208 83.1003 37.952 83.8363 37.728C84.5723 37.504 85.3083 37.392 86.0443 37.392C87.1803 37.392 88.0763 37.552 88.7323 37.872C89.4043 38.176 89.8843 38.672 90.1723 39.36C90.4603 40.048 90.6043 40.968 90.6043 42.12V49.824H92.0203V50.88C91.7003 50.96 91.2923 51.04 90.7963 51.12C90.3163 51.2 89.8923 51.24 89.5243 51.24C89.0763 51.24 88.7723 51.168 88.6123 51.024C88.4523 50.896 88.3723 50.6 88.3723 50.136V49.344C87.8923 49.824 87.3003 50.264 86.5963 50.664C85.9083 51.064 85.1243 51.264 84.2443 51.264C83.0923 51.264 82.1323 50.936 81.3643 50.28C80.6123 49.608 80.2363 48.648 80.2363 47.4ZM85.2763 49.632C85.6923 49.632 86.1723 49.504 86.7163 49.248C87.2603 48.992 87.7563 48.688 88.2043 48.336V44.208C86.4603 44.208 85.1403 44.48 84.2443 45.024C83.3643 45.552 82.9243 46.248 82.9243 47.112C82.9243 47.976 83.1323 48.616 83.5483 49.032C83.9803 49.432 84.5563 49.632 85.2763 49.632ZM95.6334 56.976C95.3614 56.976 95.0894 56.96 94.8174 56.928C94.5614 56.896 94.3774 56.848 94.2654 56.784V54.696C94.3614 54.76 94.5454 54.808 94.8174 54.84C95.1054 54.872 95.3774 54.888 95.6334 54.888C96.4014 54.888 97.0734 54.616 97.6494 54.072C98.2414 53.544 98.8094 52.52 99.3534 51H98.2014L93.6414 39.12L92.5374 38.808V37.68H98.3214V38.808L96.4734 39.096L98.8254 46.176L99.9294 49.68L100.961 46.152L103.097 39.096L101.489 38.808V37.68H106.313V38.808L105.113 39.096C102.761 46.296 101.377 50.384 100.961 51.36C100.417 52.736 99.9214 53.808 99.4734 54.576C99.0254 55.36 98.4974 55.952 97.8894 56.352C97.2814 56.768 96.5294 56.976 95.6334 56.976ZM111.768 40.368C111.768 42.576 111.64 44.472 111.384 46.056C111.128 47.624 110.816 48.776 110.448 49.512C110.208 50.056 109.896 50.464 109.512 50.736C109.128 51.008 108.568 51.144 107.832 51.144C107.544 51.144 107.16 51.096 106.68 51L106.536 48.984C106.904 49.064 107.448 49.104 108.168 49.104C108.84 49.104 109.376 48.216 109.776 46.44C110.176 44.664 110.384 42.248 110.4 39.192L108.216 38.856V37.68H120.456V38.88L118.368 39.24V49.608L120.384 49.824V51H114.024V49.824L115.896 49.608V39.12H111.768V40.368Z" fill="white"/>
</svg>