<svg width="49" height="48" viewBox="0 0 49 48" fill="none" xmlns="http://www.w3.org/2000/svg">
<path fill-rule="evenodd" clip-rule="evenodd" d="M4.10899 3.37413C0.734863 6.74826 0.734863 12.1788 0.734863 23.04V24.96C0.734863 35.8212 0.734863 41.2517 4.10899 44.6259C7.48312 48 12.9137 48 23.7749 48H25.6949C36.5561 48 41.9866 48 45.3608 44.6259C48.7349 41.2517 48.7349 35.8212 48.7349 24.96V23.04C48.7349 12.1788 48.7349 6.74826 45.3608 3.37413C41.9866 0 36.5561 0 25.6949 0H23.7749C12.9137 0 7.48312 0 4.10899 3.37413ZM8.83498 14.6001C9.09498 27.0801 15.335 34.5801 26.275 34.5801H26.8951V27.4401C30.9151 27.8401 33.9549 30.7801 35.1749 34.5801H40.855C39.295 28.9001 35.1948 25.7601 32.6348 24.5601C35.1948 23.0801 38.7948 19.4801 39.6548 14.6001H34.4947C33.3747 18.5601 30.0551 22.1601 26.8951 22.5001V14.6001H21.7349V28.4401C18.5349 27.6401 14.495 23.7601 14.315 14.6001H8.83498Z" fill="white"/>
</svg>